<svg xmlns="http://www.w3.org/2000/svg" viewBox="0 0 22 22" width="512" height="512"><g fill="#fff"><path d="M15.002 3h1.996A3.003 3.003 0 0 1 20 6.01V6c0 .553.443 1 1 1 .553 0 1-.444 1-1v-.005A4.992 4.992 0 0 0 16.998 1h-1.996A4.997 4.997 0 0 0 10 5.995v10.01A4.992 4.992 0 0 0 15.002 21h1.996A4.997 4.997 0 0 0 22 16.005V16c0-.553-.443-1-1-1-.553 0-1 .443-1 1v-.01A3 3 0 0 1 16.998 19h-1.996A3.003 3.003 0 0 1 12 15.99V6.01A3 3 0 0 1 15.002 3zM4 1a4 4 0 1 0 0 8 4 4 0 0 0 0-8zm0 6a2 2 0 1 1 .001-4.001A2 2 0 0 1 4 7z"/></g></svg>