<svg xmlns="http://www.w3.org/2000/svg" viewBox="0 0 480 480" width="512" height="512"><path d="M240 0C107.452 0 0 107.452 0 240s107.452 240 240 240 240-107.452 240-240C479.85 107.514 372.486.15 240 0zm100.689 40H139.311c63.312-32 138.066-32 201.378 0zM112.467 56h255.065a225.808 225.808 0 0 1 50.288 48H62.179a225.83 225.83 0 0 1 50.288-48zM51 120h378a223.099 223.099 0 0 1 23.061 48H27.939A223.099 223.099 0 0 1 51 120zm-27.912 64h433.824a223.288 223.288 0 0 1 6.885 48H16.203a223.35 223.35 0 0 1 6.885-48zm116.223 256h201.378c-63.312 32-138.066 32-201.378 0zm228.222-16H112.467a225.808 225.808 0 0 1-50.288-48H417.82a225.804 225.804 0 0 1-50.287 48zM429 360H51a223.099 223.099 0 0 1-23.061-48H452.06A223.048 223.048 0 0 1 429 360zm27.912-64H23.088a223.296 223.296 0 0 1-6.885-48h447.594a223.359 223.359 0 0 1-6.885 48z" fill="#FFF"/></svg>