<svg xmlns="http://www.w3.org/2000/svg" viewBox="0 0 50.68 50.68" width="512" height="512"><path d="M21.935 29.657c.619 0 1.127.492 1.127 1.111s-.508 1.127-1.127 1.127H11.238c-3.111 0-5.92-1.254-7.952-3.301A11.192 11.192 0 0 1 0 20.658a11.19 11.19 0 0 1 3.286-7.936 11.214 11.214 0 0 1 7.952-3.302c.746 0 1.492.079 2.222.238a9.73 9.73 0 0 1 1.175.302 14.73 14.73 0 0 1 4.92-5.016 14.423 14.423 0 0 1 7.635-2.175c3.857 0 7.365 1.508 9.968 3.952 2.333 2.206 3.952 5.159 4.444 8.492.238-.032.476-.032.73-.032 2.301 0 4.397.936 5.904 2.444a8.338 8.338 0 0 1 2.444 5.905 8.373 8.373 0 0 1-2.444 5.92 8.337 8.337 0 0 1-5.904 2.444H28.745a1.131 1.131 0 0 1-1.127-1.127c0-.619.508-1.111 1.127-1.111h13.587a6.083 6.083 0 0 0 4.317-1.794 6.093 6.093 0 0 0 1.794-4.333 6.051 6.051 0 0 0-1.794-4.317 6.083 6.083 0 0 0-5.063-1.746c-.238.016-.46.063-.667.111a7.482 7.482 0 0 1-.254.048 1.129 1.129 0 0 1-1.175-1.063c-.19-3.222-1.651-6.127-3.857-8.206a12.263 12.263 0 0 0-8.444-3.349 12.333 12.333 0 0 0-11.031 6.825 1.123 1.123 0 0 1-1.429.54 8.648 8.648 0 0 0-3.492-.715c-2.492 0-4.73 1.016-6.365 2.635a8.974 8.974 0 0 0-2.635 6.365c0 2.492 1 4.73 2.635 6.365 1.635 1.619 3.873 2.635 6.365 2.635h10.698zm14.142-2.952a1.112 1.112 0 0 1 0 1.587 1.12 1.12 0 0 1-1.571 0l-8.047-8.047V46.8c0 .619-.492 1.111-1.111 1.111a1.118 1.118 0 0 1-1.127-1.111V20.245l-8.031 8.047c-.444.429-1.159.429-1.587 0a1.112 1.112 0 0 1 0-1.587l9.952-9.952a1.093 1.093 0 0 1 1.571 0l9.951 9.952z" fill="#FFF"/></svg>