<svg xmlns="http://www.w3.org/2000/svg" viewBox="0 0 50.68 50.68" width="512" height="512"><path d="M36.093 37.639c.429-.444.429-1.159 0-1.587a1.112 1.112 0 0 0-1.587 0l-8.047 8.032v-26.54c0-.619-.492-1.127-1.111-1.127s-1.127.508-1.127 1.127v26.539l-8.031-8.032a1.112 1.112 0 0 0-1.587 0 1.14 1.14 0 0 0 0 1.587l9.952 9.952a1.14 1.14 0 0 0 1.587 0l9.951-9.951zm-14.142-7.984c.603 0 1.111.492 1.111 1.111s-.508 1.127-1.111 1.127H11.237a11.143 11.143 0 0 1-7.936-3.301A11.143 11.143 0 0 1 0 20.656c0-3.095 1.254-5.905 3.301-7.936a11.206 11.206 0 0 1 7.936-3.302c.746 0 1.492.079 2.222.238.413.079.809.175 1.19.302 1.19-2.048 2.889-3.762 4.905-5.016a14.436 14.436 0 0 1 7.65-2.175c3.841 0 7.349 1.508 9.952 3.952a14.53 14.53 0 0 1 4.444 8.492c.238-.032.492-.032.73-.032 2.301 0 4.397.936 5.904 2.444a8.272 8.272 0 0 1 2.444 5.905 8.311 8.311 0 0 1-2.444 5.92 8.337 8.337 0 0 1-5.904 2.444H28.744a1.118 1.118 0 0 1-1.111-1.127c0-.619.492-1.111 1.111-1.111h13.587a6.055 6.055 0 0 0 4.317-1.794 6.093 6.093 0 0 0 1.794-4.333 6.055 6.055 0 0 0-1.794-4.317 6.055 6.055 0 0 0-5.047-1.746 4.37 4.37 0 0 0-.683.111l-.238.048a1.142 1.142 0 0 1-1.19-1.063 12.22 12.22 0 0 0-3.857-8.206 12.254 12.254 0 0 0-8.428-3.349c-2.381 0-4.603.683-6.476 1.841a12.215 12.215 0 0 0-4.555 4.984c-.27.524-.889.762-1.444.54a8.84 8.84 0 0 0-1.698-.54 9.299 9.299 0 0 0-1.794-.175c-2.492 0-4.73 1.016-6.365 2.635a9.042 9.042 0 0 0-2.635 6.365c0 2.492 1.016 4.73 2.635 6.365 1.635 1.619 3.873 2.635 6.365 2.635h10.713z" fill="#FFF"/></svg>