<svg xmlns="http://www.w3.org/2000/svg" width="512" height="512"><path d="M501.344 325.328H380.188a128.453 128.453 0 0 0 4.031-32c0-70.805-57.406-128.211-128.219-128.211s-128.219 57.406-128.219 128.211c0 11.062 1.406 21.781 4.039 32H10.664C4.773 325.328 0 330.109 0 336s4.773 10.672 10.664 10.672h490.68c5.875 0 10.656-4.781 10.656-10.672s-4.781-10.672-10.656-10.672zm-143.314 0H153.977a107.025 107.025 0 0 1-4.868-32c0-28.531 11.125-55.383 31.312-75.57 20.187-20.187 47.031-31.312 75.578-31.312s55.391 11.125 75.578 31.312 31.312 47.039 31.312 75.57c0 11.031-1.672 21.781-4.859 32z" fill="#FFF"/><path d="M96 282.672H32c-5.891 0-10.664 4.781-10.664 10.656 0 5.906 4.773 10.688 10.664 10.688h64c5.891 0 10.664-4.781 10.664-10.688 0-5.875-4.773-10.656-10.664-10.656zM480 282.672h-64c-5.891 0-10.656 4.781-10.656 10.656A10.677 10.677 0 0 0 416 304.016l.016-.016 63.984.016V304c5.891.016 10.656-4.766 10.656-10.672 0-5.875-4.766-10.656-10.656-10.656zM421.938 127.406a10.666 10.666 0 0 0-15.094 0l-.016.016-45.234 45.234c-4.156 4.164-4.156 10.922 0 15.086s10.922 4.164 15.094 0v-.008l45.25-45.25c4.156-4.164 4.156-10.914 0-15.078zM256 58.672c-5.891 0-10.672 4.773-10.664 10.664v64c0 5.891 4.773 10.664 10.664 10.664 5.891.008 10.664-4.773 10.664-10.664v-64c0-5.891-4.773-10.664-10.664-10.664zM150.406 172.656c-.008 0-.008-.008-.008-.008l-45.25-45.242c-4.164-4.172-10.914-4.172-15.086 0-4.164 4.164-4.164 10.922 0 15.086.008 0 .016.008.024.016l45.234 45.234c4.164 4.164 10.922 4.164 15.086 0s4.164-10.914 0-15.086zM286.172 393.75l-.016-.016-22.609-22.609h-.008c-1.93-1.922-4.594-3.125-7.539-3.125s-5.609 1.203-7.539 3.125l-22.633 22.625c-4.164 4.172-4.164 10.922 0 15.078 4.164 4.172 10.922 4.172 15.086 0h.008l4.414-4.406v38.25c0 5.891 4.773 10.656 10.664 10.656s10.664-4.766 10.664-10.656v-38.25l4.422 4.406a10.628 10.628 0 0 0 15.086 0c4.172-4.156 4.172-10.906 0-15.078z" fill="#FFF"/></svg>