<svg xmlns="http://www.w3.org/2000/svg" height="512" viewBox="0 -32 480 479" width="512"><path d="M448.48 237.82l-.066-.062A108.686 108.686 0 0 0 432 224.812V56.5c-.04-30.91-25.09-55.96-56-56a55.277 55.277 0 0 0-39.574 16.426c-1.196 1.183-2.29 2.398-3.442 3.726A55.898 55.898 0 0 0 320 56.5v168.305a103.273 103.273 0 0 0-47.727 81.382A72.652 72.652 0 0 0 272 312.5c.043 47.242 31.926 88.523 77.625 100.504 45.7 11.98 93.73-8.344 116.95-49.488s15.784-92.77-18.095-125.696zm14.399 88.633c-7.293 45.285-48.152 77.375-93.879 73.727-45.723-3.649-80.977-41.809-81-87.68 0-1.598.07-3.281.223-5.16a87.547 87.547 0 0 1 43.785-71.121l4-2.301V56.5a39.87 39.87 0 0 1 9.199-25.52 30.7 30.7 0 0 1 2.563-2.77A39.434 39.434 0 0 1 376 16.5c22.082.027 39.973 17.922 40 40v177.402l4 2.309a91.94 91.94 0 0 1 17.32 13.09A87.85 87.85 0 0 1 464 312.5a86.06 86.06 0 0 1-1.105 13.953zm0 0" fill="#FFF"/><path d="M400 261.98V64.5c-.066-13.227-10.773-23.934-24-24-13.254 0-24 10.746-24 24v197.441c-23.617 11.247-36.3 37.344-30.555 62.864 5.746 25.52 28.395 43.66 54.555 43.695a57.129 57.129 0 0 0 18.398-3.078 56.096 56.096 0 0 0 32.274-29.137A54.466 54.466 0 0 0 432 312.5a55.511 55.511 0 0 0-14.938-38.008A56.772 56.772 0 0 0 400 261.98zM376 56.5a7.818 7.818 0 0 1 5.703 2.457A7.665 7.665 0 0 1 384 64.5v96h-16v-96a8 8 0 0 1 8-8zm36.184 272.945a40.006 40.006 0 0 1-22.993 20.801A41.423 41.423 0 0 1 376 352.5c-19.418-.074-35.977-14.082-39.266-33.215-3.293-19.137 7.63-37.875 25.907-44.433L368 272.98V176.5h16v96.426l5.297 1.902a40.801 40.801 0 0 1 16.055 10.559A39.636 39.636 0 0 1 416 312.5a38.735 38.735 0 0 1-3.816 16.945zm0 0M264 96.5h32v16h-32zm0 0M248 160.5h48v16h-48zm0 0M264 216.5h32v16h-32zm0 0M192 96.5c0-22.09-17.91-40-40-40s-40 17.91-40 40h16c0-13.254 10.746-24 24-24s24 10.746 24 24-10.746 24-24 24H24v16h128c22.082-.027 39.973-17.918 40-40zm0 0M0 160.5h144v16H0zm0 0M160 160.5h32v16h-32zm0 0M200 200.5H24v16h176c13.254 0 24 10.746 24 24s-10.746 24-24 24-24-10.746-24-24h-16c0 22.094 17.91 40 40 40s40-17.906 40-40c0-22.09-17.91-40-40-40zm0 0" fill="#FFF"/><path d="M104 240.5H0v16h104c13.254 0 24 10.746 24 24s-10.746 24-24 24-24-10.746-24-24H64c0 22.094 17.91 40 40 40s40-17.906 40-40c0-22.09-17.91-40-40-40zm0 0" fill="#FFF"/></svg>