<?xml version="1.0" encoding="iso-8859-1"?>
<!-- Generator: Adobe Illustrator 16.0.0, SVG Export Plug-In . SVG Version: 6.00 Build 0)  -->
<!DOCTYPE svg PUBLIC "-//W3C//DTD SVG 1.1//EN" "http://www.w3.org/Graphics/SVG/1.1/DTD/svg11.dtd">
<svg xmlns="http://www.w3.org/2000/svg" xmlns:xlink="http://www.w3.org/1999/xlink" version="1.1" id="Capa_1" x="0px" y="0px" width="512px" height="512px" viewBox="0 0 311.469 311.469" style="enable-background:new 0 0 311.469 311.469;" xml:space="preserve">
<g>
	<path d="M148.505,55.15V25.046c0-3.984,3.233-7.224,7.224-7.224s7.224,3.234,7.224,7.224V55.15c0,3.984-3.239,7.227-7.224,7.227   S148.505,59.135,148.505,55.15z M67.221,96.977c1.402,1.408,3.252,2.108,5.104,2.108c1.844,0,3.696-0.7,5.104-2.114   c2.822-2.834,2.822-7.398,0-10.214L51.548,60.87c-2.822-2.816-7.398-2.816-10.22,0c-2.816,2.822-2.816,7.398,0,10.22L67.221,96.977   z M13.934,169.311h32.504c3.99,0,7.218-3.218,7.224-7.224c0-3.98-3.234-7.224-7.224-7.224H13.934c-3.99,0-7.224,3.23-7.224,7.224   S9.95,169.311,13.934,169.311z M99.35,174.638c-0.892-4.06-1.408-8.227-1.408-12.545c0-31.858,25.929-57.787,57.787-57.787   c31.861,0,57.79,25.929,57.79,57.787c0,4.318-0.517,8.491-1.411,12.545h14.693c0.721-4.084,1.165-8.251,1.165-12.545   c0-39.826-32.413-72.237-72.237-72.237c-39.827,0-72.238,32.411-72.238,72.237c0,4.275,0.441,8.455,1.162,12.545H99.35z    M227.618,99.085c1.855,0,3.698-0.7,5.116-2.108l25.88-25.887c2.822-2.822,2.822-7.404,0-10.22s-7.397-2.816-10.22,0   l-25.881,25.887c-2.822,2.816-2.822,7.392,0,10.214C223.931,98.385,225.78,99.085,227.618,99.085z M246.281,162.093   c0,3.987,3.236,7.225,7.229,7.225h38.532c3.981,0,7.225-3.225,7.225-7.225c0-3.975-3.219-7.224-7.225-7.224h-38.532   C249.518,154.869,246.281,158.106,246.281,162.093z M304.239,190.688H11.697c-3.993,0-7.232,3.236-7.232,7.235   c0,3.969,3.246,7.224,7.232,7.224h292.542c3.987,0,7.229-3.242,7.229-7.224C311.469,193.925,308.227,190.688,304.239,190.688z    M299.766,234.036H7.221c-3.993,0-7.221,3.225-7.221,7.225c0,3.975,3.237,7.224,7.221,7.224h292.545   c3.993,0,7.224-3.237,7.224-7.224C306.989,237.273,303.759,234.036,299.766,234.036z M299.766,279.187H7.221   c-3.993,0-7.221,3.23-7.221,7.224c0,3.981,3.237,7.236,7.221,7.236h292.545c3.993,0,7.224-3.249,7.224-7.236   C306.989,282.405,303.759,279.187,299.766,279.187z" fill="#FFFFFF"/>
</g>
<g>
</g>
<g>
</g>
<g>
</g>
<g>
</g>
<g>
</g>
<g>
</g>
<g>
</g>
<g>
</g>
<g>
</g>
<g>
</g>
<g>
</g>
<g>
</g>
<g>
</g>
<g>
</g>
<g>
</g>
</svg>
