<svg xmlns="http://www.w3.org/2000/svg" viewBox="0 0 480 480" width="512" height="512"><path d="M240.018 0h-.013c-132.548 0-240 107.452-240 240s107.452 240 240 240h.013c132.548-.012 239.99-107.474 239.977-240.022C479.983 107.447 372.549.013 240.018 0zM16.005 240c.107-91.128 55.335-173.135 139.737-207.494C105.725 74.123 72.009 151.519 72.009 240s33.716 165.876 83.733 207.493C71.34 413.134 16.112 331.128 16.005 240zm72.004 0c0-103.674 48.048-191.091 113.046-216.511-31.267 41.055-49.05 129.843-49.05 216.511s17.783 175.456 49.05 216.511C136.057 431.091 88.009 343.674 88.009 240zm144 222.291c-31.73-12.905-64.004-100.549-64.004-222.291s32.273-209.386 64.004-222.291v444.582zm16-.003V17.712C279.737 30.628 312.005 118.268 312.005 240s-32.268 209.372-63.996 222.288zm30.943-5.772c31.269-41.053 49.053-129.844 49.053-216.516S310.221 64.537 278.952 23.484C343.955 48.898 392.009 136.319 392.009 240s-48.054 191.102-113.057 216.516zm45.331-9.029c50.013-41.618 83.726-119.01 83.726-207.487 0-88.477-33.713-165.87-83.727-207.488 114.59 46.506 169.782 177.103 123.276 291.694a223.945 223.945 0 0 1-123.275 123.281z" fill="#FFF"/></svg>