<svg xmlns="http://www.w3.org/2000/svg" width="512" height="512" viewBox="0 0 361.117 361.117"><g fill="#FFF"><path d="M359.568 327.246L191.511 21.818a12.502 12.502 0 0 0-21.904 0L1.549 327.246A12.502 12.502 0 0 0 12.5 345.773h336.117a12.499 12.499 0 0 0 10.951-18.527zm-325.922-6.474L180.559 53.773l146.913 266.999H33.646z"/><path d="M164.894 143.085v90.351c0 8.65 7.014 15.665 15.665 15.665 8.65 0 15.665-7.015 15.665-15.665v-90.351c0-8.651-7.015-15.665-15.665-15.665-8.651 0-15.665 7.015-15.665 15.665zM180.559 265.364c-9.097 0-16.5 7.399-16.5 16.5 0 9.098 7.403 16.5 16.5 16.5 9.097 0 16.5-7.402 16.5-16.5 0-9.1-7.404-16.5-16.5-16.5z"/></g></svg>