<svg xmlns="http://www.w3.org/2000/svg" viewBox="0 0 480.042 480.042" width="512" height="512"><path d="M477.085 176.333c-13.122-55.919-69.09-90.612-125.009-77.491C349.327 43.461 303.611-.022 248.163 0c-57.438.023-103.981 46.604-103.958 104.042v1.6a79.313 79.313 0 0 0-16-1.6c-36.146.078-67.776 24.318-77.248 59.2C20.765 172.557.174 200.467.183 232.064c.012 39.765 32.257 71.99 72.022 71.978h304c2.968 0 5.848-.088 8.672-.344 4.956-.432 9.875-1.22 14.718-2.357 55.919-13.121 90.612-69.09 77.49-125.008zm-93.608 111.421c-2.4.224-4.8.288-7.272.288h-304c-26.013-.002-48.6-17.916-54.525-43.245-7.045-30.115 11.658-60.239 41.773-67.283a8 8 0 0 0 6.04-6.208c6.104-29.796 32.297-51.208 62.712-51.264a60.678 60.678 0 0 1 21.92 3.944 8 8 0 0 0 10.808-8.552 83.301 83.301 0 0 1-.728-11.392c0-48.601 39.399-88 88-88s88 39.399 88 88c0 1.72-.072 3.44-.152 5.168a8 8 0 0 0 10.696 7.88 86.702 86.702 0 0 1 29.456-5.048c45.905-.084 84.162 35.133 87.872 80.888 3.928 48.442-32.158 90.896-80.6 94.824zM183.181 388.122a8.329 8.329 0 0 0-13.952 0c-4.184 7.448-25.024 45.312-25.024 59.92 0 17.673 14.327 32 32 32s32-14.327 32-32c0-14.608-20.8-52.472-25.024-59.92zm-6.976 75.92c-8.837 0-16-7.163-16-16a152.318 152.318 0 0 1 16-39.104 152.318 152.318 0 0 1 16 39.104c0 8.837-7.164 16-16 16zM311.181 388.122a8.329 8.329 0 0 0-13.952 0c-4.224 7.448-25.024 45.312-25.024 59.92 0 17.673 14.327 32 32 32 17.673 0 32-14.327 32-32 0-14.608-20.8-52.472-25.024-59.92zm-6.976 75.92c-8.837 0-16-7.163-16-16a152.318 152.318 0 0 1 16-39.104 152.318 152.318 0 0 1 16 39.104c0 8.837-7.164 16-16 16zM247.181 324.122a8.329 8.329 0 0 0-13.952 0c-4.184 7.448-25.024 45.312-25.024 59.92 0 17.673 14.327 32 32 32 17.673 0 32-14.327 32-32 0-14.608-20.8-52.472-25.024-59.92zm-6.976 75.92c-8.837 0-16-7.163-16-16a152.318 152.318 0 0 1 16-39.104 152.318 152.318 0 0 1 16 39.104c0 8.837-7.164 16-16 16zM119.181 324.122a8.329 8.329 0 0 0-13.952 0c-4.184 7.448-25.024 45.312-25.024 59.92 0 17.673 14.327 32 32 32s32-14.327 32-32c0-14.608-20.8-52.472-25.024-59.92zm-6.976 75.92c-8.837 0-16-7.163-16-16a152.318 152.318 0 0 1 16-39.104 152.318 152.318 0 0 1 16 39.104c0 8.837-7.164 16-16 16zM375.181 324.122a8.329 8.329 0 0 0-13.952 0c-4.224 7.448-25.024 45.312-25.024 59.92 0 17.673 14.327 32 32 32 17.673 0 32-14.327 32-32 0-14.608-20.8-52.472-25.024-59.92zm-6.976 75.92c-8.837 0-16-7.163-16-16a152.318 152.318 0 0 1 16-39.104 152.318 152.318 0 0 1 16 39.104c0 8.837-7.164 16-16 16z" fill="#FFF"/></svg>